# Blender 5.0.0
# www.blender.org
mtllib tronco.mtl
o Circle.009_Wood_0
v 2.462792 0.018467 5.690459
v 2.377798 -0.092582 5.531201
v 2.315170 -0.091903 5.573914
v 2.302145 0.007301 5.779364
v 2.849123 -0.278512 5.972506
v 2.794250 -0.047619 6.031065
v 2.737499 -0.072133 6.158352
v 2.698103 -0.283597 6.103280
v 2.743459 -0.225344 5.701912
v 2.694717 0.003072 5.781562
v 2.778591 -0.020092 5.893151
v 2.833023 -0.253383 5.822579
v 2.457547 -0.281775 6.248257
v 2.482920 -0.088416 6.256601
v 2.340298 -0.081221 6.184418
v 2.239863 -0.256740 6.230171
v 2.212853 -0.205173 5.918587
v 2.255682 -0.038051 5.972541
v 2.302145 0.007301 5.779364
v 2.235719 -0.173295 5.700216
v 2.551866 -0.203965 5.690170
v 2.565103 0.015666 5.726199
v 2.694717 0.003072 5.781562
v 2.624173 -0.308376 6.309580
v 2.623544 -0.087066 6.240904
v 2.195348 -0.228197 6.076951
v 2.264787 -0.087930 6.086118
v 2.451161 -0.184759 5.633134
v 2.462792 0.018467 5.690459
v 2.624173 -0.308376 6.309580
v 2.588920 0.119082 5.735575
v 2.608056 0.197660 5.714396
v 2.760481 0.159610 5.777052
v 2.724419 0.092160 5.792001
v 2.653494 0.035554 6.283309
v 2.704245 0.112632 6.350918
v 2.499916 0.156041 6.381618
v 2.507023 0.053720 6.302890
v 2.285023 0.135533 6.133280
v 2.247583 0.224938 6.186067
v 2.227593 0.246505 6.019507
v 2.268612 0.122293 6.002951
v 2.442449 0.137248 5.755155
v 2.441067 0.204390 5.734334
v 2.771690 0.031013 6.192970
v 2.836680 0.096149 6.247014
v 2.358345 0.079198 6.227236
v 2.344944 0.169118 6.315052
v 2.324253 0.141789 5.845495
v 2.292513 0.249441 5.863354
v 2.829942 0.041313 6.056078
v 2.867311 0.070241 6.055429
v 2.724419 0.092160 5.792001
v 2.760481 0.159610 5.777052
v 2.860025 0.125190 5.909389
v 2.812639 0.063694 5.909313
v 2.358345 0.079198 6.227236
v 2.285875 0.066113 6.215864
v 2.245593 -0.034678 6.198512
v 2.340298 -0.081221 6.184418
v 2.285023 0.135533 6.133280
v 2.242959 0.136251 6.150092
v 2.358345 0.079198 6.227236
v 2.265151 0.058626 6.193698
v 2.281627 0.053465 6.186151
v 2.253365 -0.017668 6.173767
v 2.236889 -0.012506 6.181314
v 2.233072 0.109043 6.148175
v 2.249547 0.103882 6.140627
v 2.281627 0.053465 6.186151
v 2.265151 0.058626 6.193698
v 2.264787 -0.087930 6.086118
v 2.173760 -0.050004 6.130299
v 2.184682 -0.003121 6.045092
v 2.255682 -0.038051 5.972541
v 2.268612 0.122293 6.002951
v 2.220804 0.097737 6.053666
v 2.255682 -0.038051 5.972541
v 2.184682 -0.003121 6.045092
v 2.220804 0.097737 6.053666
v 2.268612 0.122293 6.002951
v 2.193341 0.009501 6.072284
v 2.173760 -0.050004 6.130299
v 2.183599 -0.023253 6.133237
v 2.236889 -0.012506 6.181314
v 2.265151 0.058626 6.193698
v 2.218707 0.080606 6.078333
v 2.233072 0.109043 6.148175
v 2.218707 0.080606 6.078333
v 2.183599 -0.023253 6.133237
v 2.200075 -0.028415 6.125690
v 2.209817 0.004339 6.064737
v 2.193341 0.009501 6.072284
v 2.218707 0.080606 6.078333
v 2.235183 0.075445 6.070785
v 2.193341 0.009501 6.072284
v 2.209817 0.004339 6.064737
v 2.235183 0.075445 6.070785
v 2.218707 0.080606 6.078333
v 2.247583 0.224938 6.186067
v 2.312562 0.227462 6.160476
v 2.296703 0.244572 6.028334
v 2.227593 0.246505 6.019507
v 2.441067 0.204390 5.734334
v 2.465694 0.207533 5.801522
v 2.598546 0.205820 5.786273
v 2.608056 0.197660 5.714396
v 2.836680 0.096149 6.247014
v 2.779927 0.125286 6.208828
v 2.674859 0.138363 6.291262
v 2.704245 0.112632 6.350918
v 2.344944 0.169118 6.315052
v 2.389485 0.180041 6.262315
v 2.292513 0.249441 5.863354
v 2.348208 0.246901 5.904449
v 2.867311 0.070241 6.055429
v 2.799204 0.100506 6.051642
v 2.760481 0.159610 5.777052
v 2.719474 0.175633 5.835981
v 2.798448 0.148326 5.940971
v 2.860025 0.125190 5.909389
v 2.499916 0.156041 6.381618
v 2.512806 0.173325 6.315700
v 2.719474 0.175633 5.835981
v 2.760481 0.159610 5.777052
v 2.389485 0.180041 6.262315
v 2.397324 0.095117 6.233783
v 2.324103 0.123676 6.138622
v 2.312562 0.227462 6.160476
v 2.348208 0.246901 5.904449
v 2.353880 0.145527 5.903712
v 2.462306 0.131253 5.811469
v 2.465694 0.207533 5.801522
v 2.799204 0.100506 6.051642
v 2.772833 0.047708 6.039967
v 2.754731 0.043199 6.180083
v 2.779927 0.125286 6.208828
v 2.719474 0.175633 5.835981
v 2.694779 0.092787 5.838819
v 2.768682 0.068782 5.934565
v 2.798448 0.148326 5.940971
v 2.512806 0.173325 6.315700
v 2.509972 0.075637 6.279274
v 2.296703 0.244572 6.028334
v 2.307951 0.140461 6.017593
v 2.598546 0.205820 5.786273
v 2.582927 0.117581 5.794010
v 2.694779 0.092787 5.838819
v 2.719474 0.175633 5.835981
v 2.674859 0.138363 6.291262
v 2.659030 0.051208 6.256303
v 2.310151 -0.157231 5.565707
v 2.379600 -0.159949 5.522193
v 2.451161 -0.184759 5.633134
v 2.379600 -0.159949 5.522193
v 2.377798 -0.092582 5.531201
v 2.302145 0.007301 5.779364
v 2.235719 -0.173295 5.700216
v 2.743459 -0.225344 5.701912
v 2.833023 -0.253383 5.822579
v 2.840651 -0.250828 5.820083
v 2.748016 -0.222627 5.695370
v 2.551866 -0.203965 5.690170
v 2.554614 -0.202136 5.682421
v 2.451161 -0.184759 5.633134
v 2.456746 -0.183580 5.626940
v 2.212853 -0.205173 5.918587
v 2.235719 -0.173295 5.700216
v 2.228028 -0.170336 5.698475
v 2.204911 -0.202371 5.918435
v 2.195348 -0.228197 6.076951
v 2.187935 -0.224755 6.078988
v 2.239863 -0.256740 6.230171
v 2.235205 -0.253767 6.236527
v 2.457547 -0.281775 6.248257
v 2.456038 -0.280407 6.256430
v 2.624173 -0.308376 6.309580
v 2.627724 -0.307913 6.317204
v 2.698103 -0.283597 6.103280
v 2.704938 -0.284392 6.108138
v 2.849123 -0.278512 5.972506
v 2.857140 -0.277985 5.975033
v 2.310151 -0.157231 5.565707
v 2.379600 -0.159949 5.522193
v 2.381439 -0.158641 5.514078
v 2.303828 -0.155056 5.560584
v 2.451161 -0.184759 5.633134
v 2.456746 -0.183580 5.626940
v 2.235719 -0.173295 5.700216
v 2.228028 -0.170336 5.698475
v 2.200075 -0.028415 6.125690
v 2.253365 -0.017668 6.173767
v 2.281627 0.053465 6.186151
v 2.249547 0.103882 6.140627
v 2.235183 0.075445 6.070785
v 2.209817 0.004339 6.064737
v 2.772833 0.047708 6.039967
v 2.768682 0.068782 5.934565
v 2.694779 0.092787 5.838819
v 2.582927 0.117581 5.794010
v 2.462306 0.131253 5.811469
v 2.353880 0.145527 5.903712
v 2.307951 0.140461 6.017593
v 2.324103 0.123676 6.138622
v 2.397324 0.095117 6.233783
v 2.509972 0.075637 6.279274
v 2.659030 0.051208 6.256303
v 2.754731 0.043199 6.180083
vn 0.0706 0.4699 -0.8799
vn -0.4723 0.5137 -0.7163
vn -0.6381 0.5358 -0.5530
vn -0.7918 0.4513 -0.4116
vn 0.9633 0.0882 0.2535
vn 0.9634 -0.1797 0.1990
vn 0.7763 -0.2660 0.5715
vn 0.8108 -0.0952 0.5776
vn 0.5732 0.3271 -0.7513
vn 0.5631 0.1125 -0.8187
vn 0.9267 0.0185 -0.3753
vn 0.9049 0.3037 -0.2983
vn -0.1792 0.1624 0.9703
vn -0.2046 -0.0507 0.9775
vn -0.4356 -0.0968 0.8949
vn -0.5706 0.3623 0.7370
vn -0.9427 0.3326 -0.0249
vn -0.9316 0.2865 -0.2236
vn -0.9099 0.3530 -0.2179
vn 0.3240 0.2182 -0.9205
vn 0.2742 0.1963 -0.9414
vn 0.5630 0.1125 -0.8188
vn -0.1331 0.1505 0.9796
vn 0.4020 -0.1832 0.8971
vn -0.8774 0.4109 0.2477
vn -0.8780 0.4104 0.2464
vn 0.6697 0.1387 -0.7296
vn 0.8405 -0.0583 0.5387
vn 0.1638 -0.0886 -0.9825
vn 0.0888 -0.3050 -0.9482
vn 0.4860 -0.4221 -0.7653
vn 0.5462 -0.2748 -0.7913
vn 0.2546 -0.5683 0.7824
vn 0.1920 -0.7156 0.6716
vn -0.2150 -0.6419 0.7360
vn -0.1907 -0.4858 0.8530
vn -0.8727 -0.4361 0.2195
vn -0.8610 -0.4475 0.2417
vn -0.9417 -0.3149 -0.1189
vn -0.9413 0.1012 -0.3221
vn -0.3692 0.0887 -0.9251
vn -0.4138 -0.2034 -0.8874
vn 0.6173 -0.6325 0.4678
vn 0.4727 -0.7808 0.4084
vn -0.4892 -0.4244 0.7619
vn -0.5896 -0.5907 0.5509
vn -0.8185 0.0524 -0.5722
vn -0.8314 -0.2005 -0.5183
vn 0.8032 -0.5937 0.0481
vn 0.6784 -0.7339 -0.0350
vn 0.5463 -0.2748 -0.7912
vn 0.4861 -0.4221 -0.7652
vn 0.6873 -0.5846 -0.4310
vn 0.7909 -0.4459 -0.4190
vn -0.4892 -0.4243 0.7620
vn -0.3138 0.2714 0.9099
vn -0.4586 -0.3753 0.8055
vn -0.2264 0.9346 0.2742
vn -0.5910 0.7133 0.3768
vn -0.0520 0.7642 0.6429
vn -0.3237 0.2857 -0.9020
vn -0.1422 0.6446 -0.7512
vn -0.0848 0.7266 -0.6819
vn -0.3215 -0.9453 -0.0554
vn -0.3232 -0.9444 -0.0597
vn -0.4581 -0.7384 -0.4950
vn -0.4759 -0.8795 0.0058
vn -0.4752 -0.8799 0.0075
vn -0.5855 -0.7268 -0.3591
vn -0.9413 0.1013 -0.3221
vn -0.7804 0.5592 -0.2799
vn -0.9316 0.2865 -0.2237
vn -0.9027 0.3254 -0.2815
vn -0.7804 0.5591 -0.2799
vn -0.9303 0.3496 0.1107
vn -0.8606 0.3185 0.3975
vn -0.8547 0.3145 0.4131
vn -0.7204 0.2041 0.6628
vn -0.7366 0.1805 0.6518
vn -0.9430 0.3118 0.1166
vn -0.8828 0.2497 0.3979
vn 0.3270 0.9425 0.0692
vn 0.3279 0.9420 0.0715
vn 0.4542 0.7525 0.4769
vn 0.1196 -0.6783 0.7249
vn 0.1711 -0.5984 0.7827
vn 0.3542 -0.2040 0.9127
vn 0.1179 -0.6778 0.7258
vn 0.0664 0.9709 0.2299
vn 0.0659 0.9712 0.2289
vn 0.0179 0.9968 0.0778
vn 0.0179 0.9968 0.0784
vn 0.0974 0.9890 -0.1115
vn 0.1047 0.9879 -0.1141
vn 0.1445 0.9864 -0.0788
vn 0.1466 0.9861 -0.0787
vn 0.3821 0.9195 0.0919
vn 0.3830 0.9194 0.0898
vn 0.2726 0.9244 0.2670
vn 0.2769 0.9239 0.2642
vn 0.0480 0.9601 0.2756
vn 0.0471 0.9603 0.2750
vn 0.1057 0.9927 -0.0577
vn 0.1046 0.9929 -0.0565
vn 0.4419 0.8881 0.1265
vn 0.4411 0.8868 0.1381
vn 0.3077 0.9505 -0.0443
vn 0.3887 0.9073 0.1602
vn 0.3878 0.9085 0.1559
vn 0.1068 0.9611 0.2547
vn 0.1109 0.9604 0.2557
vn 0.6382 0.2802 -0.7171
vn 0.6195 0.2842 -0.7317
vn 0.9244 0.1819 -0.3352
vn 0.9321 0.1772 -0.3158
vn 0.8268 0.0528 0.5600
vn 0.8071 0.0523 0.5880
vn 0.4112 0.0724 0.9087
vn 0.4207 0.0716 0.9044
vn -0.9231 0.3844 -0.0053
vn -0.9234 0.3837 0.0056
vn -0.7906 0.4251 -0.4407
vn -0.7367 0.4269 -0.5244
vn -0.5608 0.1930 0.8051
vn -0.5615 0.1932 0.8046
vn -0.8625 0.3147 0.3963
vn -0.8545 0.3086 0.4180
vn 0.1761 0.3506 -0.9198
vn 0.1547 0.3528 -0.9228
vn 0.9866 0.0938 0.1337
vn 0.9853 0.0923 0.1439
vn -0.1153 0.1188 0.9862
vn -0.1088 0.1181 0.9870
vn -0.5614 0.1932 0.8047
vn -0.2943 0.3979 -0.8690
vn -0.3304 0.4012 -0.8543
vn -0.7504 0.2582 -0.6085
vn -0.5404 0.1211 -0.8326
vn 0.6698 0.1387 -0.7295
vn 0.8474 0.0972 -0.5220
vn -0.9099 0.3530 -0.2180
vn -0.0357 0.9407 0.3373
vn -0.1745 0.9501 0.2587
vn -0.1744 0.9500 0.2589
vn -0.0445 0.9405 0.3369
vn 0.0646 0.9553 0.2885
vn 0.0650 0.9549 0.2899
vn 0.0450 0.9754 0.2159
vn 0.0448 0.9757 0.2146
vn 0.3553 0.9191 0.1704
vn 0.2761 0.9393 0.2036
vn 0.2781 0.9390 0.2022
vn 0.3567 0.9185 0.1704
vn 0.4338 0.8954 0.1003
vn 0.4394 0.8937 0.0911
vn 0.3132 0.9434 -0.1089
vn 0.3173 0.9424 -0.1060
vn 0.1693 0.9679 -0.1857
vn 0.1698 0.9680 -0.1850
vn 0.0661 0.9975 -0.0254
vn 0.0676 0.9974 -0.0266
vn -0.0378 0.9972 0.0643
vn -0.0388 0.9971 0.0650
vn -0.0933 0.9894 0.1113
vn -0.1037 0.9874 0.1192
vn 0.1958 0.9564 0.2169
vn 0.1018 0.9754 0.1955
vn 0.1032 0.9752 0.1956
vn 0.1989 0.9553 0.2186
vn -0.8728 0.2729 0.4048
vn -0.8727 0.2729 0.4048
vn -0.8728 0.2728 0.4047
vn -0.8728 0.2728 0.4048
vn 0.1745 0.9784 0.1108
vt 0.933609 0.882374
vt 0.926471 0.834200
vt 0.943827 0.820428
vt 0.985417 0.871404
vt 0.789967 0.840391
vt 0.775268 0.893238
vt 0.737324 0.874605
vt 0.760979 0.829194
vt 0.838133 0.800091
vt 0.876951 0.887312
vt 0.824985 0.897972
vt 0.811485 0.831383
vt 0.730629 0.806846
vt 0.699314 0.819385
vt 0.698424 0.787083
vt 0.724475 0.786858
vt 0.742984 0.759774
vt 0.718531 0.742400
vt 0.747594 0.714711
vt 0.761936 0.739474
vt 0.807019 0.754143
vt 0.816708 0.696819
vt 0.872063 0.700693
vt 0.734981 0.824158
vt 0.710676 0.849882
vt 0.729877 0.774611
vt 0.709740 0.764904
vt 0.784745 0.741977
vt 0.787468 0.700607
vt 0.818127 0.659809
vt 0.815129 0.629298
vt 0.883934 0.618907
vt 0.880806 0.657703
vt 0.683429 0.872266
vt 0.659634 0.897011
vt 0.622613 0.843452
vt 0.662119 0.833079
vt 0.659674 0.742752
vt 0.627868 0.734365
vt 0.658299 0.692828
vt 0.688133 0.717279
vt 0.766486 0.666930
vt 0.760275 0.645131
vt 0.718471 0.901388
vt 0.699409 0.927241
vt 0.657633 0.782655
vt 0.617395 0.789380
vt 0.723897 0.686096
vt 0.698496 0.663333
vt 0.764768 0.926490
vt 0.762888 0.943912
vt 0.880757 0.927967
vt 0.883934 0.962955
vt 0.816223 0.958765
vt 0.820091 0.930823
vt 0.906762 0.652721
vt 0.921652 0.666937
vt 0.917214 0.696073
vt 0.888339 0.696931
vt 0.943097 0.647404
vt 0.945282 0.659065
vt 0.287082 0.282321
vt 0.292070 0.282314
vt 0.292030 0.302841
vt 0.287041 0.302848
vt 0.280800 0.263451
vt 0.285788 0.263444
vt 0.907863 0.728108
vt 0.929008 0.712774
vt 0.940955 0.728907
vt 0.931141 0.756357
vt 0.978864 0.639018
vt 0.971455 0.658199
vt 0.969840 0.729538
vt 0.978864 0.749370
vt 0.944657 0.721624
vt 0.933205 0.709411
vt 0.924647 0.694357
vt 0.928500 0.672805
vt 0.965859 0.722107
vt 0.946476 0.665153
vt 0.966688 0.666196
vt 0.280609 0.320953
vt 0.285598 0.320946
vt 0.291967 0.338315
vt 0.286978 0.338322
vt 0.286915 0.244070
vt 0.291903 0.244063
vt 0.292070 0.358365
vt 0.287082 0.358373
vt 0.600257 0.722295
vt 0.638468 0.673648
vt 0.750831 0.618815
vt 0.807416 0.600124
vt 0.685057 0.956040
vt 0.637013 0.915121
vt 0.582775 0.788799
vt 0.686877 0.642436
vt 0.756952 0.973668
vt 0.871231 0.997797
vt 0.810114 0.987366
vt 0.599304 0.853415
vt 0.868400 0.585269
vt 0.666829 0.283635
vt 0.690602 0.282336
vt 0.691550 0.314997
vt 0.663674 0.319542
vt 0.684933 0.387109
vt 0.709973 0.377333
vt 0.728785 0.410208
vt 0.711275 0.420646
vt 0.719799 0.141606
vt 0.734003 0.148813
vt 0.713556 0.180156
vt 0.690807 0.172594
vt 0.751462 0.083420
vt 0.768529 0.098687
vt 0.747774 0.123886
vt 0.729199 0.111103
vt 0.664922 0.248066
vt 0.692478 0.249816
vt 0.671654 0.354159
vt 0.698552 0.346866
vt 0.727956 0.451875
vt 0.746751 0.437253
vt 0.768529 0.461470
vt 0.752363 0.477689
vt 0.677408 0.205495
vt 0.702112 0.210531
vt 0.924313 0.812726
vt 0.918154 0.826394
vt 0.888339 0.833713
vt 0.985417 0.760762
vt 0.920122 0.771802
vt 0.780396 0.520979
vt 0.796704 0.492322
vt 0.796704 0.510822
vt 0.761143 0.513857
vt 0.778481 0.483959
vt 0.760796 0.493972
vt 0.792700 0.131451
vt 0.772978 0.196230
vt 0.772934 0.163761
vt 0.789361 0.224378
vt 0.820923 0.115261
vt 0.817631 0.240704
vt 0.853552 0.115314
vt 0.846014 0.238371
vt 0.881850 0.131650
vt 0.882064 0.228327
vt 0.898294 0.159769
vt 0.898294 0.200217
s 1
usemtl Wood
f 1/1/1 2/2/2 3/3/3
f 1/1/1 3/3/3 4/4/4
f 5/5/5 6/6/6 7/7/7
f 5/5/5 7/7/7 8/8/8
f 9/9/9 10/10/10 11/11/11
f 9/9/9 11/11/11 12/12/12
f 13/13/13 14/14/14 15/15/15
f 13/13/13 15/15/15 16/16/16
f 17/17/17 18/18/18 19/19/4
f 17/17/17 19/19/4 20/20/19
f 12/12/12 11/11/11 6/6/6
f 12/12/12 6/6/6 5/5/5
f 21/21/20 22/22/21 23/23/22
f 21/21/20 23/23/22 9/9/9
f 24/24/23 25/25/24 14/14/14
f 24/24/23 14/14/14 13/13/13
f 26/26/25 27/27/26 18/18/18
f 26/26/25 18/18/18 17/17/17
f 28/28/27 29/29/1 22/22/21
f 28/28/27 22/22/21 21/21/20
f 8/8/8 7/7/7 25/25/24
f 8/8/8 25/25/24 30/24/28
f 16/16/16 15/15/15 27/27/26
f 16/16/16 27/27/26 26/26/25
f 31/30/29 32/31/30 33/32/31
f 31/30/29 33/32/31 34/33/32
f 35/34/33 36/35/34 37/36/35
f 35/34/33 37/36/35 38/37/36
f 39/38/37 40/39/38 41/40/39
f 39/38/37 41/40/39 42/41/40
f 43/42/41 44/43/42 32/31/30
f 43/42/41 32/31/30 31/30/29
f 45/44/43 46/45/44 36/35/34
f 45/44/43 36/35/34 35/34/33
f 47/46/45 48/47/46 40/39/38
f 47/46/45 40/39/38 39/38/37
f 49/48/47 50/49/48 44/43/42
f 49/48/47 44/43/42 43/42/41
f 51/50/49 52/51/50 46/45/44
f 51/50/49 46/45/44 45/44/43
f 53/52/51 54/53/52 55/54/53
f 53/52/51 55/54/53 56/55/54
f 38/37/36 37/36/35 48/47/46
f 38/37/36 48/47/46 47/46/45
f 42/41/40 41/40/39 50/49/48
f 42/41/40 50/49/48 49/48/47
f 56/55/54 55/54/53 52/51/50
f 56/55/54 52/51/50 51/50/49
f 11/11/11 56/55/54 51/50/49
f 11/11/11 51/50/49 6/6/6
f 18/18/18 42/41/40 49/48/47
f 18/18/18 49/48/47 19/19/4
f 14/14/14 38/37/36 47/46/45
f 14/14/14 47/46/45 15/15/15
f 10/10/10 53/52/51 56/55/54
f 10/10/10 56/55/54 11/11/11
f 6/6/6 51/50/49 45/44/43
f 6/6/6 45/44/43 7/7/7
f 19/19/4 49/48/47 43/42/41
f 19/19/4 43/42/41 29/29/1
f 57/56/55 58/57/56 59/58/57
f 57/56/55 59/58/57 60/59/15
f 7/7/7 45/44/43 35/34/33
f 7/7/7 35/34/33 25/25/24
f 29/29/1 43/42/41 31/30/29
f 29/29/1 31/30/29 22/22/21
f 61/60/58 62/61/59 58/57/56
f 61/60/58 58/57/56 63/56/60
f 25/25/24 35/34/33 38/37/36
f 25/25/24 38/37/36 14/14/14
f 22/22/21 31/30/29 34/33/32
f 22/22/21 34/33/32 23/23/22
f 64/62/61 65/63/61 66/64/62
f 64/62/61 66/64/62 67/65/63
f 68/66/64 69/67/65 70/63/66
f 68/66/64 70/63/66 71/62/66
f 72/68/67 73/69/68 74/70/69
f 72/68/67 74/70/69 75/71/69
f 76/72/70 77/73/71 62/61/59
f 76/72/70 62/61/59 61/60/58
f 78/71/72 79/70/73 80/74/74
f 78/71/72 80/74/74 81/75/70
f 60/59/15 59/58/57 73/69/68
f 60/59/15 73/69/68 72/68/67
f 82/76/75 79/70/73 83/69/76
f 82/76/75 83/69/76 84/77/77
f 84/77/77 83/69/76 59/58/57
f 84/77/77 59/58/57 85/78/78
f 85/78/78 59/58/57 58/57/56
f 85/78/78 58/57/56 86/79/79
f 87/80/80 80/74/74 79/70/73
f 87/80/80 79/70/73 82/76/75
f 86/79/79 58/57/56 62/61/59
f 86/79/79 62/61/59 88/81/81
f 88/81/81 62/61/59 77/73/71
f 88/81/81 77/73/71 89/82/80
f 90/83/82 91/84/83 92/85/84
f 90/83/82 92/85/84 93/86/84
f 94/87/85 95/88/86 69/67/65
f 94/87/85 69/67/65 68/66/64
f 96/86/87 97/85/87 98/89/86
f 96/86/87 98/89/86 99/90/88
f 67/65/63 66/64/62 91/84/83
f 67/65/63 91/84/83 90/83/82
f 100/39/89 101/91/90 102/92/91
f 100/39/89 102/92/91 103/40/92
f 104/43/93 105/93/94 106/94/95
f 104/43/93 106/94/95 107/31/96
f 108/45/97 109/95/98 110/96/99
f 108/45/97 110/96/99 111/35/100
f 112/47/101 113/97/102 101/91/90
f 112/47/101 101/91/90 100/39/89
f 114/49/103 115/98/104 105/93/94
f 114/49/103 105/93/94 104/43/93
f 116/51/105 117/99/106 109/95/98
f 116/51/105 109/95/98 108/45/97
f 118/53/107 119/100/107 120/101/108
f 118/53/107 120/101/108 121/54/109
f 122/36/110 123/102/111 113/97/102
f 122/36/110 113/97/102 112/47/101
f 103/40/92 102/92/91 115/98/104
f 103/40/92 115/98/104 114/49/103
f 121/54/109 120/101/108 117/99/106
f 121/54/109 117/99/106 116/51/105
f 107/31/96 106/94/95 124/103/107
f 107/31/96 124/103/107 125/32/107
f 111/35/100 110/96/99 123/102/111
f 111/35/100 123/102/111 122/36/110
f 126/104/112 127/105/113 128/106/114
f 126/104/112 128/106/114 129/107/115
f 130/108/116 131/109/117 132/110/118
f 130/108/116 132/110/118 133/111/119
f 134/112/120 135/113/121 136/114/122
f 134/112/120 136/114/122 137/115/123
f 138/116/124 139/117/125 140/118/126
f 138/116/124 140/118/126 141/119/127
f 142/120/128 143/121/129 127/105/113
f 142/120/128 127/105/113 126/104/112
f 144/122/130 145/123/131 131/109/117
f 144/122/130 131/109/117 130/108/116
f 141/119/127 140/118/126 135/113/121
f 141/119/127 135/113/121 134/112/120
f 146/124/132 147/125/133 148/126/134
f 146/124/132 148/126/134 149/127/124
f 150/128/135 151/129/136 143/121/129
f 150/128/135 143/121/129 142/120/128
f 129/107/115 128/106/114 145/123/131
f 129/107/115 145/123/131 144/122/130
f 133/111/119 132/110/118 147/125/133
f 133/111/119 147/125/133 146/124/132
f 137/115/123 136/114/122 151/129/136
f 137/115/123 151/129/136 150/128/135
f 152/130/137 3/3/3 2/2/2
f 152/130/137 2/2/2 153/131/138
f 154/132/139 155/131/140 156/2/140
f 154/132/139 156/2/140 1/1/1
f 157/133/4 3/3/3 152/130/137
f 157/133/4 152/130/137 158/134/141
f 159/9/142 160/12/143 161/12/144
f 159/9/142 161/12/144 162/9/145
f 163/21/146 159/9/142 162/9/145
f 163/21/146 162/9/145 164/21/147
f 165/28/148 163/21/146 164/21/147
f 165/28/148 164/21/147 166/28/149
f 167/17/150 168/20/151 169/20/152
f 167/17/150 169/20/152 170/17/153
f 171/26/154 167/17/150 170/17/153
f 171/26/154 170/17/153 172/26/155
f 173/16/156 171/26/154 172/26/155
f 173/16/156 172/26/155 174/16/157
f 175/13/158 173/16/156 174/16/157
f 175/13/158 174/16/157 176/13/159
f 177/24/160 175/13/158 176/13/159
f 177/24/160 176/13/159 178/24/161
f 179/8/162 177/24/160 178/24/161
f 179/8/162 178/24/161 180/8/163
f 181/5/164 179/8/162 180/8/163
f 181/5/164 180/8/163 182/5/165
f 160/12/143 181/5/164 182/5/165
f 160/12/143 182/5/165 161/12/144
f 183/130/166 184/131/167 185/131/168
f 183/130/166 185/131/168 186/130/169
f 184/131/167 187/132/148 188/132/149
f 184/131/167 188/132/149 185/131/168
f 189/134/151 183/130/166 186/130/169
f 189/134/151 186/130/169 190/134/152
f 192/135/170 196/136/171 191/137/172
f 196/136/171 192/135/170 193/138/173
f 196/136/171 193/138/173 195/139/173
f 195/139/173 193/138/173 194/140/173
f 202/141/174 200/142/174 201/143/174
f 200/142/174 202/141/174 199/144/174
f 199/144/174 202/141/174 203/145/174
f 199/144/174 203/145/174 198/146/174
f 198/146/174 203/145/174 204/147/174
f 198/146/174 204/147/174 197/148/174
f 197/148/174 204/147/174 205/149/174
f 197/148/174 205/149/174 208/150/174
f 208/150/174 205/149/174 206/151/174
f 208/150/174 206/151/174 207/152/174
