# Blender 5.0.0
# www.blender.org
mtllib maleza.mtl
o grass_albedo.004_grass_0
v -0.402939 -0.151576 -2.574336
v 0.036257 -0.133788 -2.412481
v 0.062457 0.401292 -2.542376
v -0.376739 0.383505 -2.704232
v 0.008580 -0.177388 -2.627331
v -0.368407 -0.094510 -2.361966
v -0.346145 0.360164 -2.472342
v 0.030843 0.277286 -2.737707
v -0.161473 -0.191908 -2.721442
v -0.204544 -0.079885 -2.268670
v -0.182281 0.374789 -2.379046
v -0.139211 0.262766 -2.831818
vn -0.3444 0.2374 0.9083
vn -0.5916 -0.1627 -0.7896
vn -0.9946 0.0243 -0.1006
vt 0.000000 1.000000
vt 1.000000 1.000000
vt 1.000000 0.000000
vt 0.000000 0.000000
s 0
usemtl grass
f 1/1/1 2/2/1 3/3/1
f 1/1/1 3/3/1 4/4/1
f 5/1/2 6/2/2 7/3/2
f 5/1/2 7/3/2 8/4/2
f 9/1/3 10/2/3 11/3/3
f 9/1/3 11/3/3 12/4/3
