# Blender 5.0.0
# www.blender.org
mtllib roca3.mtl
o Cube.024_Stones_0
v 1.771102 -0.155558 -4.871397
v 1.932923 -0.075769 -4.739830
v 1.986717 -0.058362 -4.921582
v 1.915738 -0.276428 -5.215092
v 2.583003 -0.301271 -5.004799
v 2.371010 -0.420234 -5.146370
v 2.204329 -0.060737 -5.000417
v 2.621809 -0.178174 -4.840575
v 2.687018 -0.363397 -4.791118
v 2.583003 -0.301271 -5.004799
v 2.687018 -0.363397 -4.791118
v 2.284055 -0.041183 -4.461003
v 2.229155 -0.220264 -4.476480
v 2.592960 -0.452765 -4.754388
v 1.800679 -0.432716 -5.178820
v 1.707040 -0.272342 -4.892457
v 1.771102 -0.155558 -4.871397
v 1.915738 -0.276428 -5.215092
v 2.592960 -0.452765 -4.754388
v 2.447687 -0.488385 -4.914762
v 2.583003 -0.301271 -5.004799
v 2.687018 -0.363397 -4.791118
v 2.417786 -0.039732 -4.835415
v 2.621809 -0.178174 -4.840575
v 2.417786 -0.039732 -4.835415
v 2.621809 -0.178174 -4.840575
v 1.986717 -0.058362 -4.921582
v 2.204329 -0.060737 -5.000417
v 2.256044 -0.510933 -5.091845
v 1.800679 -0.432716 -5.178820
v 2.371010 -0.420234 -5.146370
v 2.371010 -0.420234 -5.146370
v 2.256044 -0.510933 -5.091845
v 2.592960 -0.452765 -4.754388
v 2.229155 -0.220264 -4.476480
v 2.232089 -0.214261 -4.459575
v 2.609673 -0.456679 -4.750359
v 1.707040 -0.272342 -4.892457
v 1.691173 -0.267232 -4.891033
v 2.447687 -0.488385 -4.914762
v 2.458031 -0.496308 -4.923743
v 1.800679 -0.432716 -5.178820
v 1.789177 -0.436270 -5.194464
v 2.256044 -0.510933 -5.091845
v 2.260143 -0.519126 -5.105867
v 2.256044 -0.510933 -5.091845
v 2.260143 -0.519126 -5.105867
v 1.932923 -0.075769 -4.739830
v 1.771102 -0.155558 -4.871397
v 1.707040 -0.272342 -4.892457
v 2.229155 -0.220264 -4.476480
v 2.284055 -0.041183 -4.461003
v 2.284055 -0.041183 -4.461003
v 2.417786 -0.039732 -4.835415
v 2.204329 -0.060737 -5.000417
vn -0.4178 0.9078 -0.0367
vn -0.2373 0.9712 -0.0225
vn -0.1097 0.9939 -0.0125
vn 0.2204 0.1632 -0.9617
vn 0.3473 0.5641 -0.7491
vn 0.2247 0.1975 -0.9542
vn 0.3655 0.5822 -0.7263
vn 0.9011 0.2169 -0.3755
vn 0.6637 0.1655 0.7295
vn 0.6831 0.2497 0.6863
vn 0.5066 -0.2150 0.8350
vn 0.5066 -0.2149 0.8350
vn -0.7428 0.4602 -0.4863
vn -0.5883 0.6232 -0.5153
vn -0.4625 0.7183 -0.5198
vn 0.5834 -0.6844 -0.4373
vn 0.5756 -0.7028 -0.4181
vn 0.5755 -0.7030 -0.4179
vn 0.5833 -0.6845 -0.4373
vn 0.4227 0.6655 -0.6152
vn 0.6834 0.6210 0.3840
vn 0.6834 0.6209 0.3840
vn -0.3263 0.7948 -0.5116
vn 0.0608 -0.3938 -0.9172
vn 0.2204 0.1631 -0.9617
vn 0.2246 0.1974 -0.9542
vn 0.5678 -0.7196 -0.3997
vn 0.2899 0.8674 -0.4045
vn 0.2553 0.8913 -0.3746
vn 0.2551 0.8914 -0.3747
vn 0.2898 0.8661 -0.4072
vn 0.2404 0.8861 -0.3963
vn 0.2884 0.8534 -0.4342
vn 0.2884 0.8532 -0.4345
vn 0.2454 0.8802 -0.4063
vn 0.2459 0.8801 -0.4063
vn 0.2592 0.8723 -0.4145
vn 0.2604 0.8719 -0.4148
vn 0.2593 0.8723 -0.4145
vn -0.6313 0.1345 0.7638
vn -0.0639 0.9979 -0.0088
vt 0.731345 0.811698
vt 0.744536 0.750943
vt 0.691934 0.710735
vt 0.584209 0.770375
vt 0.614099 0.527005
vt 0.508236 0.607171
vt 0.676735 0.659604
vt 0.702790 0.544695
vt 0.855453 0.558960
vt 0.763322 0.487349
vt 0.790419 0.688033
vt 0.908582 0.760660
vt 0.952629 0.580785
vt 0.653389 0.959009
vt 0.771114 0.904121
vt 0.971078 0.519340
vt 0.704309 0.641276
vt 0.482242 0.990669
vt 0.417946 0.857768
vt 0.863410 0.437765
vt 0.981833 0.449663
s 1
usemtl Stones
f 1/1/1 2/2/2 3/3/3
f 4/4/4 5/5/5 6/6/6
f 4/4/4 7/7/7 5/5/5
s 0
f 8/8/8 9/9/8 10/10/8
s 1
f 11/9/9 12/11/10 13/12/11
f 11/9/9 13/12/11 14/13/12
f 15/14/13 16/15/13 17/1/14
f 15/14/13 17/1/14 18/4/15
f 19/13/16 20/16/17 21/10/18
f 19/13/16 21/10/18 22/9/19
f 5/5/5 7/7/7 23/17/20
f 5/5/5 23/17/20 24/8/20
f 25/17/21 12/11/10 11/9/9
f 25/17/21 11/9/9 26/8/22
f 18/4/15 17/1/14 27/3/23
f 18/4/15 27/3/23 28/7/23
f 29/18/24 30/14/24 4/4/25
f 29/18/24 4/4/25 31/19/26
f 32/20/27 21/10/18 20/16/17
f 32/20/27 20/16/17 33/21/27
f 34/13/28 35/12/29 36/12/30
f 34/13/28 36/12/30 37/13/31
f 35/12/29 38/15/32 39/15/32
f 35/12/29 39/15/32 36/12/30
f 40/16/33 34/13/28 37/13/31
f 40/16/33 37/13/31 41/16/34
f 38/15/32 42/14/35 43/14/36
f 38/15/32 43/14/36 39/15/32
f 42/14/35 44/18/37 45/18/38
f 42/14/35 45/18/38 43/14/36
f 46/21/39 40/16/33 41/16/34
f 46/21/39 41/16/34 47/21/38
f 51/12/40 49/1/40 50/15/40
f 49/1/40 51/12/40 48/2/40
f 48/2/40 51/12/40 52/11/40
f 2/2/2 55/7/41 3/3/3
f 55/7/41 2/2/2 54/17/41
f 54/17/41 2/2/2 53/11/41
