# Blender 5.0.0
# www.blender.org
mtllib roca2.mtl
o Cube_Line__0
v 2.290935 0.396790 -2.716662
v 2.089526 0.283926 -2.612841
v 2.146506 0.521396 -2.776490
v 1.822693 0.255570 -2.752343
v 1.914673 0.155197 -3.239419
v 2.037996 0.320196 -3.246426
v 2.146506 0.521396 -2.776490
v 2.546314 0.304368 -3.138122
v 2.463687 0.556569 -3.151501
v 2.037996 0.320196 -3.246426
v 2.178242 0.613720 -3.158457
v 2.546314 0.304368 -3.138122
v 2.586741 -0.002148 -3.138228
v 2.563751 0.043025 -2.761657
v 2.214420 0.664508 -3.061507
v 2.178242 0.613720 -3.158457
v 2.214420 0.664508 -3.061507
v 2.315881 0.538059 -2.745458
v 2.146506 0.521396 -2.776490
v 2.089526 0.283926 -2.612841
v 1.822693 0.255570 -2.752343
v 2.146506 0.521396 -2.776490
v 2.476126 0.370646 -2.827599
v 2.315881 0.538059 -2.745458
v 1.914673 0.155197 -3.239419
v 2.096764 0.177777 -3.305373
v 2.037996 0.320196 -3.246426
v 2.290935 0.396790 -2.716662
v 2.563751 0.043025 -2.761657
v 2.302746 0.063520 -2.476834
v 2.302746 0.063520 -2.476834
v 2.476126 0.370646 -2.827599
v 2.214420 0.664508 -3.061507
v 2.178242 0.613720 -3.158457
v 2.463687 0.556569 -3.151501
v 2.471243 0.528833 -2.844971
v 2.463687 0.556569 -3.151501
v 2.511280 0.163540 -3.224672
v 2.564672 -0.018856 -3.316464
v 2.463687 0.556569 -3.151501
v 2.471243 0.528833 -2.844971
v 2.096764 0.177777 -3.305373
v 2.511280 0.163540 -3.224672
v 2.315881 0.538059 -2.745458
v 2.471243 0.528833 -2.844971
v 1.922768 -0.000947 -3.187568
v 2.174978 -0.020304 -3.363712
v 2.174978 -0.020304 -3.363712
v 2.564672 -0.018856 -3.316464
v 1.922768 -0.000947 -3.187568
v 1.914673 0.155197 -3.239419
v 1.822693 0.255570 -2.752343
v 1.869510 0.052910 -2.720211
v 1.869510 0.052910 -2.720211
v 1.822693 0.255570 -2.752343
v 2.089526 0.283926 -2.612841
v 2.302746 0.063520 -2.476834
vn -0.0184 -0.4718 -0.8815
vn -0.1003 -0.5707 -0.8150
vn 0.0176 -0.4161 -0.9092
vn 0.6739 -0.7111 0.2006
vn 0.7778 -0.5701 0.2644
vn 0.7914 -0.5911 0.1558
vn 0.7675 -0.6353 0.0858
vn -0.2059 -0.2511 0.9458
vn -0.1644 -0.0981 0.9815
vn -0.1694 -0.3170 0.9332
vn -0.0743 -0.2536 0.9645
vn -0.9762 -0.2160 -0.0190
vn -0.9678 -0.1919 0.1626
vn -0.9722 -0.2110 -0.1014
vn 0.8578 -0.5112 -0.0523
vn 0.8901 -0.4543 -0.0359
vn -0.2333 -0.9461 -0.2247
vn -0.0563 -0.9331 -0.3552
vn 0.1636 -0.8967 -0.4113
vn 0.4248 -0.5806 -0.6946
vn -0.9618 -0.2474 -0.1177
vn 0.1972 -0.2291 -0.9532
vn 0.4484 -0.0059 0.8938
vn 0.4408 -0.0271 0.8972
vn 0.3565 -0.2279 0.9061
vn -0.5814 -0.2552 -0.7725
vn -0.6316 -0.4028 -0.6625
vn -0.6755 -0.4463 -0.5869
vn -0.0888 -0.5839 -0.8070
vn -0.5282 -0.2086 -0.8231
vn -0.1809 -0.8418 0.5085
vn -0.3165 -0.9262 -0.2049
vn -0.4180 -0.9056 -0.0716
vn -0.9105 -0.2383 0.3381
vn -0.9105 -0.2383 0.3380
vn -0.9731 -0.2139 -0.0854
vn -0.1757 -0.4401 0.8806
vn -0.1717 -0.4351 0.8838
vn -0.5304 -0.0943 -0.8425
vn -0.5304 -0.0944 -0.8425
vn 0.4838 0.1020 0.8692
vn 0.4838 0.1019 0.8692
vn -0.1498 -0.4073 0.9009
vn 0.9768 0.1776 0.1199
vn 0.9768 0.1775 0.1200
vn 0.9768 0.1776 0.1200
vn 0.4814 -0.0518 -0.8750
vn 0.4814 -0.0519 -0.8750
vt 0.605219 0.190083
vt 0.708803 0.155927
vt 0.643285 0.272023
vt 0.798859 0.213673
vt 0.920835 0.372093
vt 0.834391 0.426429
vt 0.370635 0.191243
vt 0.415925 0.305374
vt 0.194071 0.349017
vt 0.338221 0.409504
vt 0.321435 0.054641
vt 0.492783 0.018323
vt 0.631364 0.425623
vt 0.674946 0.453733
vt 0.535112 0.382118
vt 0.579208 0.242517
vt 0.510086 0.174605
vt 0.101929 0.343820
vt 0.161716 0.282223
vt 0.671590 0.013640
vt 0.498351 0.423985
vt 0.518058 0.240373
vt 0.304276 0.146008
vt 0.243868 0.065460
vt 0.041219 0.302185
vt 0.120149 0.190645
vt 0.977442 0.312877
vt 0.848066 0.145288
s 1
usemtl Line
f 1/1/1 2/2/2 3/3/3
f 4/4/4 5/5/5 6/6/6
f 7/3/7 4/4/4 6/6/6
f 8/7/8 9/8/9 10/9/10
f 11/10/11 10/9/10 9/8/9
f 12/7/12 13/11/13 14/12/14
f 15/13/15 7/3/7 16/14/16
f 17/15/17 18/16/18 19/3/19
f 6/6/6 16/14/16 7/3/7
s 0
f 20/2/20 21/4/20 22/3/20
s 1
f 23/17/21 12/7/12 14/12/14
f 1/1/1 3/3/3 24/16/22
f 25/18/23 26/19/24 27/9/25
f 28/1/26 29/12/27 30/20/28
f 1/1/1 31/20/29 2/2/2
f 32/17/30 29/12/27 28/1/26
s 0
f 33/15/31 34/21/31 35/8/31
s 1
f 17/15/17 36/22/32 18/16/18
f 17/15/17 37/8/33 36/22/32
f 38/23/34 39/24/35 13/11/13
f 38/23/34 13/11/13 12/7/12
f 40/8/36 12/7/12 23/17/21
f 40/8/36 23/17/21 41/22/36
f 42/19/37 43/23/38 8/7/8
f 42/19/37 8/7/8 10/9/10
f 44/16/39 45/22/40 32/17/30
f 44/16/39 32/17/30 28/1/26
f 26/19/24 25/18/23 46/25/41
f 26/19/24 46/25/41 47/26/42
f 43/23/38 42/19/37 48/26/43
f 43/23/38 48/26/43 49/24/43
f 50/27/44 51/5/45 52/4/46
f 50/27/44 52/4/46 53/28/44
f 54/28/47 55/4/47 56/2/48
f 54/28/47 56/2/48 57/20/47
